<svg xmlns:dc="http://purl.org/dc/elements/1.1/" xmlns:cc="http://creativecommons.org/ns#" xmlns:rdf="http://www.w3.org/1999/02/22-rdf-syntax-ns#" xmlns:svg="http://www.w3.org/2000/svg" xmlns="http://www.w3.org/2000/svg" xmlns:sodipodi="http://sodipodi.sourceforge.net/DTD/sodipodi-0.dtd" xmlns:inkscape="http://www.inkscape.org/namespaces/inkscape" version="1.1" x="0px" y="0px" viewBox="0 0 16 20"><g transform="translate(0,-1036.3622)"><path style="text-indent:0;text-transform:none;direction:ltr;block-progression:tb;baseline-shift:baseline;color:#000000;enable-background:accumulate;" d="m 1.8826873,1036.3778 0,0.5 0,14.9688 0,0.5 0.5,0 11.2187497,0 0.5,0 0,-0.5 0,-11.0938 a 0.50005,0.50005 0 0 0 0,-0.25 l 0,-0.094 -0.03125,0 a 0.50005,0.50005 0 0 0 -0.0625,-0.094 l -0.03125,-0.031 a 0.50005,0.50005 0 0 0 -0.03125,0 l 0,-0.031 a 0.50005,0.50005 0 0 0 -0.0625,-0.062 l -0.0625,0 a 0.50005,0.50005 0 0 0 -0.03125,-0.031 l -1.71875,-1.75 -1.78125,-1.8125 a 0.50005,0.50005 0 0 0 -0.03125,-0.031 l -0.03125,-0.031 a 0.50005,0.50005 0 0 0 -0.125,-0.094 l -0.03125,-0.062 -0.1249997,0 -0.03125,0 a 0.50005,0.50005 0 0 0 -0.0625,0 l -0.09375,0 -7.375,0 -0.5,0 z m 1,1 6.46875,0 0,3.25 0,0.5 0.5,0 3.2499997,0 0,10.2188 -10.2187497,0 0,-13.9688 z m 7.4687497,0.7188 1.03125,1 1.03125,1.0312 -2.0625,0 0,-2.0312 z m -4.2187497,4.8437 c -0.7866666,0 -1.4375,0.6509 -1.4375,1.4375 0,0.7866 0.6508979,1.4375 1.4375,1.4375 0.7865973,0 1.4375,-0.6509 1.4375,-1.4375 0,-0.7866 -0.6508381,-1.4375 -1.4375,-1.4375 z m 4.1562497,0 c -0.7866667,0 -1.4374997,0.6509 -1.4374997,1.4375 0,0.7866 0.650898,1.4375 1.4374997,1.4375 0.786597,0 1.4375,-0.6509 1.4375,-1.4375 0,-0.7866 -0.650838,-1.4375 -1.4375,-1.4375 z m -4.1562497,1 c 0.2461101,0 0.4375,0.1915 0.4375,0.4375 0,0.2462 -0.1913253,0.4375 -0.4375,0.4375 -0.2461899,0 -0.4375,-0.1913 -0.4375,-0.4375 0,-0.246 0.1913746,-0.4375 0.4375,-0.4375 z m 4.1562497,0 c 0.24611,0 0.4375,0.1915 0.4375,0.4375 0,0.2462 -0.191325,0.4375 -0.4375,0.4375 -0.24619,0 -0.4374997,-0.1913 -0.4374997,-0.4375 0,-0.246 0.1913747,-0.4375 0.4374997,-0.4375 z m -2.3124997,2.7188 c -0.786273,0 -1.4375,0.6511 -1.4375,1.4375 0,0.7863 0.651227,1.4375 1.4375,1.4375 0.7862725,0 1.4375,-0.6512 1.4375,-1.4375 0,-0.7864 -0.6512275,-1.4375 -1.4375,-1.4375 z m 0,1 c 0.2497155,0 0.4375,0.1876 0.4375,0.4375 0,0.2498 -0.1877845,0.4375 -0.4375,0.4375 -0.249717,0 -0.4375,-0.1877 -0.4375,-0.4375 0,-0.2499 0.187783,-0.4375 0.4375,-0.4375 z" fill="#000000" fill-opacity="1" stroke="none" marker="none" visibility="visible" display="inline" overflow="visible"/></g><text x="0" y="31" fill="#000000" font-size="5px" font-weight="bold" font-family="'Helvetica Neue', Helvetica, Arial-Unicode, Arial, Sans-serif">Created by Chameleon Design</text><text x="0" y="36" fill="#000000" font-size="5px" font-weight="bold" font-family="'Helvetica Neue', Helvetica, Arial-Unicode, Arial, Sans-serif">from the Noun Project</text></svg>